
<svg version="1.0" xmlns="http://www.w3.org/2000/svg"
 width="907.000000pt" height="846.000000pt" viewBox="0 0 907.000000 846.000000"
 preserveAspectRatio="xMidYMid meet">
<metadata>
Created by potrace 1.16, written by Peter Selinger 2001-2019
</metadata>
<g transform="translate(0.000000,846.000000) scale(0.100000,-0.100000)"
fill="#000000" stroke="none">
<path d="M4780 8205 c-259 -27 -592 -91 -677 -132 -43 -20 -63 -59 -63 -121 0
-49 0 -49 98 -143 53 -52 139 -130 190 -173 51 -43 94 -88 96 -100 3 -12 10
-50 16 -85 33 -185 160 -361 320 -445 39 -21 70 -42 70 -47 0 -10 -576 -589
-586 -589 -3 0 -154 106 -335 236 -181 129 -355 248 -387 262 -50 24 -69 27
-157 27 -87 0 -107 -4 -155 -26 -74 -35 -150 -106 -183 -171 -74 -146 -47
-336 64 -446 57 -58 970 -709 1038 -741 49 -23 68 -26 161 -26 153 0 182 16
386 217 88 87 165 158 170 158 6 0 45 -211 88 -470 63 -375 76 -472 67 -484
-7 -8 -188 -138 -403 -288 -215 -150 -416 -298 -448 -328 -46 -44 -67 -76
-108 -165 -29 -60 -58 -121 -64 -134 -27 -50 -20 -66 -177 424 -65 202 -63
199 -100 230 -23 20 -41 20 -1100 25 l-1076 5 -3 368 c-1 202 0 367 4 367 3 0
26 -15 51 -32 45 -33 45 -33 497 -36 248 -2 476 0 506 3 45 6 60 13 87 42 27
28 33 42 33 79 0 37 -6 51 -34 82 -34 37 -34 37 -500 42 -465 5 -465 5 -980
520 -536 537 -543 543 -608 527 -14 -4 -37 -16 -51 -28 -25 -19 -27 -27 -27
-89 0 -70 0 -70 87 -157 48 -49 105 -107 125 -131 38 -43 38 -43 38 -1214 0
-1304 -5 -1209 68 -1244 50 -24 100 -13 139 31 33 35 33 35 33 1079 0 628 4
1047 9 1051 5 3 68 -54 140 -126 131 -131 131 -131 133 -2365 3 -2234 3 -2234
36 -2266 32 -33 32 -33 3675 -38 2003 -3 3643 -6 3645 -8 1 -1 2 -63 2 -137 0
-135 0 -135 -3817 -133 l-3818 3 -5 1235 c-4 966 -8 1240 -18 1257 -20 36 -53
53 -104 53 -39 0 -54 -6 -80 -29 -33 -29 -33 -29 -36 -1353 -3 -1193 -1 -1326
13 -1353 30 -57 41 -60 280 -65 220 -5 220 -5 225 -163 5 -159 5 -159 42 -193
38 -34 38 -34 273 -34 330 0 323 -5 327 232 3 153 3 153 2901 156 2897 2 2897
2 2897 -130 0 -155 9 -197 51 -232 31 -26 31 -26 265 -26 326 0 316 -7 324
230 5 155 5 155 225 160 324 7 307 -16 303 406 -3 296 -3 296 -40 330 -37 34
-38 34 -133 34 -95 0 -95 0 -135 85 -65 141 -184 246 -335 296 -32 11 -377 15
-1815 19 -1775 5 -1775 5 -1807 100 -33 101 -154 477 -247 771 -31 97 -56 184
-56 194 0 16 58 146 318 708 96 209 96 209 182 265 47 31 225 148 395 260 171
113 317 207 326 209 11 3 20 -5 27 -24 95 -260 336 -893 357 -935 15 -31 53
-81 84 -111 107 -106 1342 -1086 1411 -1120 60 -30 71 -32 165 -31 88 0 107 4
157 28 88 43 142 96 185 184 36 71 38 82 38 166 0 82 -4 98 -33 159 -18 37
-50 84 -70 105 -20 20 -313 257 -650 527 -591 472 -613 491 -626 535 -8 25
-78 248 -156 495 -266 847 -237 731 -341 1356 -51 306 -89 564 -86 572 5 14
12 14 68 1 35 -8 64 -16 65 -17 1 -1 107 -211 235 -467 258 -516 270 -533 392
-590 193 -91 418 -9 512 185 27 54 30 70 30 162 0 102 0 102 -293 688 -321
644 -327 653 -442 707 -36 17 -217 62 -529 131 -261 58 -478 110 -483 115 -5
5 5 26 26 51 95 114 147 258 147 413 1 180 -120 408 -281 527 -152 113 -324
140 -660 106z m455 -270 c33 -16 80 -49 106 -75 48 -48 116 -174 121 -224 3
-25 -1 -30 -27 -38 -130 -37 -435 -50 -533 -22 -121 34 -297 141 -432 263 -30
27 -52 52 -48 56 10 10 201 44 343 60 66 8 185 13 265 11 136 -2 149 -4 205
-31z m-402 -597 c60 -19 96 -22 217 -23 80 0 187 4 238 8 70 7 92 6 92 -4 0
-21 -70 -78 -138 -111 -62 -31 -74 -33 -167 -33 -91 1 -106 4 -165 32 -67 32
-160 113 -160 139 0 18 -1 18 83 -8z m800 -509 c227 -50 416 -95 421 -99 8 -8
-37 -246 -49 -258 -3 -3 -37 -1 -76 6 -120 21 -147 17 -185 -24 -28 -29 -34
-43 -34 -78 0 -24 41 -286 90 -583 50 -297 90 -552 90 -565 0 -25 0 -25 -327
-31 -212 -5 -330 -4 -337 3 -5 5 -46 228 -91 494 -56 336 -87 492 -99 511 -24
36 -79 58 -125 50 -26 -5 -56 -27 -116 -86 -45 -43 -88 -79 -96 -79 -12 1
-114 169 -135 223 -5 14 51 76 267 293 259 260 324 314 372 314 10 0 203 -41
430 -91z m803 -184 c17 -7 41 -23 54 -36 12 -13 143 -266 291 -562 292 -583
292 -584 249 -655 -21 -35 -72 -62 -115 -62 -34 0 -97 33 -112 59 -7 11 -119
232 -249 492 -177 354 -244 479 -270 503 -35 32 -35 32 -9 150 14 65 28 123
31 128 8 12 85 2 130 -17z m-3013 -4 c13 -5 191 -129 396 -276 206 -147 387
-272 403 -277 37 -13 80 -4 119 24 37 28 31 33 115 -114 43 -77 53 -101 45
-116 -5 -10 -39 -46 -75 -80 -104 -97 -155 -100 -273 -16 -554 393 -866 619
-887 644 -92 110 21 263 157 211z m2523 -1703 c15 -24 311 -984 307 -994 -2
-7 -63 -26 -135 -43 -108 -26 -134 -30 -144 -19 -7 7 -30 60 -52 118 -205 542
-213 560 -262 585 -39 20 -63 19 -113 -6 -60 -31 -340 -205 -566 -353 -107
-70 -199 -125 -205 -123 -17 5 -176 189 -176 203 0 6 139 109 309 228 170 119
321 230 336 247 23 28 26 40 24 91 -2 43 1 62 12 69 22 14 656 12 665 -3z
m-2327 -765 c43 -137 102 -320 130 -408 56 -176 78 -103 -246 -805 -14 -30
-49 -107 -78 -170 -29 -63 -73 -158 -97 -210 -66 -140 -82 -195 -81 -275 3
-131 65 -245 174 -315 111 -72 249 -80 373 -22 110 52 147 98 251 322 50 107
96 195 102 197 5 2 35 -74 66 -169 146 -457 166 -523 159 -530 -4 -4 -459 -9
-1012 -10 -1005 -3 -1005 -3 -1071 -26 -82 -27 -177 -90 -227 -148 -20 -23
-57 -82 -82 -131 -46 -88 -46 -88 -250 -88 -205 0 -205 0 -208 1518 l-2 1517
1009 0 c1010 0 1010 0 1090 -247z m837 -90 c37 -43 76 -87 86 -99 18 -21 18
-22 -8 -62 -15 -23 -95 -188 -178 -368 -83 -180 -155 -327 -161 -328 -10 -1
-123 323 -124 356 -1 10 51 129 114 265 92 198 122 255 152 281 20 17 40 32
43 32 4 0 38 -35 76 -77z m1902 -445 c8 -27 29 -61 51 -81 20 -19 310 -253
644 -520 335 -267 618 -498 629 -512 45 -58 28 -157 -34 -195 -38 -23 -101
-26 -140 -6 -35 19 -1327 1051 -1353 1082 -26 30 -89 199 -82 218 6 16 197 66
241 63 25 -2 31 -8 44 -49z m-2381 -579 c28 -90 52 -175 52 -188 1 -25 -260
-598 -292 -643 -52 -70 -174 -65 -222 9 -41 61 -32 89 155 493 95 206 186 403
202 438 16 36 34 62 41 59 6 -2 35 -77 64 -168z m507 -1590 c34 -99 158 -89
-1123 -89 -811 0 -1132 3 -1137 11 -17 27 101 122 165 132 14 2 487 4 1051 3
1025 -1 1025 -1 1044 -57z m3695 45 c59 -17 141 -84 141 -115 0 -19 -45 -19
-1772 -17 -1772 3 -1772 3 -1795 63 -13 33 -21 66 -18 72 3 10 350 13 1698 13
1508 0 1699 -2 1746 -16z m-6515 -920 c11 -28 6 -100 -7 -118 -10 -14 -25 -17
-72 -14 -60 3 -60 3 -63 62 -4 84 -3 86 72 86 49 0 65 -4 70 -16z m6444 -50
c4 -76 -6 -86 -85 -82 -58 3 -58 3 -61 62 -4 86 -3 87 75 84 68 -3 68 -3 71
-64z"/>
</g>
</svg>
