<?xml version="1.0" standalone="no"?>
<!DOCTYPE svg PUBLIC "-//W3C//DTD SVG 20010904//EN"
 "http://www.w3.org/TR/2001/REC-SVG-20010904/DTD/svg10.dtd">
<svg version="1.0" xmlns="http://www.w3.org/2000/svg"
 width="934.000000pt" height="858.000000pt" viewBox="0 0 934.000000 858.000000"
 preserveAspectRatio="xMidYMid meet">
<metadata>
Created by potrace 1.16, written by Peter Selinger 2001-2019
</metadata>
<g transform="translate(0.000000,858.000000) scale(0.100000,-0.100000)"
fill="#000000" stroke="none">
<path d="M800 8432 c-41 -9 -81 -21 -88 -29 -7 -7 -20 -13 -28 -13 -30 0 -162
-81 -222 -137 -73 -67 -134 -147 -162 -213 -6 -14 -15 -34 -20 -45 -5 -11 -17
-40 -27 -65 -17 -43 -18 -187 -20 -2737 -3 -2692 -3 -2692 35 -2790 73 -188
194 -322 372 -413 25 -12 53 -27 63 -32 11 -5 53 -17 95 -25 67 -14 236 -17
1357 -22 l1280 -6 0 -470 c0 -470 0 -470 -235 -475 -241 -6 -263 -9 -345 -53
-51 -27 -58 -32 -119 -92 -84 -83 -126 -186 -126 -309 0 -185 105 -351 265
-419 96 -40 112 -41 760 -44 347 -2 640 -1 653 2 23 6 31 38 12 50 -6 4 -17
21 -25 38 -8 18 -19 39 -25 47 -5 8 -30 59 -55 112 -44 96 -53 123 -80 243 -8
33 -18 78 -24 100 -7 26 -11 357 -11 957 0 917 0 917 -22 932 -20 14 -186 16
-1575 16 -967 0 -1561 4 -1577 10 -14 5 -34 18 -46 30 -20 20 -20 20 -20 2598
0 2320 2 2580 16 2600 39 56 -252 52 3824 52 4147 0 3806 6 3835 -64 13 -30
15 -126 15 -589 0 -644 -11 -587 120 -605 92 -13 189 -37 203 -51 6 -6 17 -11
25 -11 14 0 145 -62 202 -95 14 -8 35 -15 48 -15 22 0 22 0 22 695 0 481 -3
709 -11 742 -14 58 -48 159 -66 193 -7 14 -13 28 -13 32 0 22 -130 174 -196
229 -35 30 -158 99 -175 99 -7 0 -20 6 -28 13 -9 8 -55 21 -103 30 -80 16
-387 17 -3885 16 -3367 -2 -3807 -4 -3873 -17z"/>
<path d="M5300 6023 c-41 -8 -91 -21 -110 -29 -19 -7 -50 -16 -67 -19 -18 -4
-33 -10 -33 -15 0 -5 -9 -12 -20 -15 -50 -16 -160 -102 -225 -176 -62 -71
-135 -190 -135 -221 0 -7 -7 -26 -16 -43 -9 -16 -21 -55 -27 -85 -7 -38 -12
-757 -14 -2335 -3 -2014 -2 -2291 12 -2371 8 -51 22 -105 30 -120 8 -16 15
-35 15 -42 0 -13 34 -76 77 -142 76 -115 216 -231 338 -278 162 -63 153 -62
898 -62 613 0 677 1 677 16 0 9 -17 53 -39 97 -73 154 -80 208 -80 640 l-1
327 -644 0 c-531 0 -646 2 -655 14 -8 10 -10 556 -9 2084 3 2071 3 2071 24
2099 11 15 40 38 65 50 44 22 44 22 1534 22 1157 1 1498 -2 1525 -12 48 -16
87 -49 100 -81 6 -18 10 -255 10 -665 0 -534 2 -640 14 -657 15 -21 106 -31
287 -33 84 -1 150 -16 241 -55 21 -9 47 -16 58 -16 20 0 20 0 17 738 -2 405
-7 755 -11 777 -24 129 -136 328 -230 409 -89 77 -217 156 -253 156 -10 0 -24
5 -29 10 -6 6 -35 15 -65 20 -30 6 -74 14 -99 20 -28 5 -630 9 -1565 8 -1310
0 -1530 -2 -1595 -15z"/>
<path d="M7155 3591 c-100 -54 -195 -161 -195 -219 0 -11 -7 -33 -15 -48 -13
-25 -15 -209 -15 -1449 0 -1240 2 -1424 15 -1449 8 -15 15 -37 15 -47 0 -24
54 -104 103 -151 22 -21 69 -53 105 -70 67 -33 67 -33 827 -36 785 -3 854 0
932 38 42 20 135 94 142 113 2 6 17 31 33 56 15 25 28 55 28 67 0 13 5 26 10
29 7 4 10 496 10 1443 0 1547 2 1459 -50 1562 -29 57 -115 135 -187 169 -64
31 -64 31 -876 30 -812 0 -812 0 -882 -38z m1523 -1595 c1 -848 -1 -1162 -9
-1172 -9 -12 -120 -14 -625 -14 -544 0 -614 2 -628 16 -14 14 -16 133 -16
1163 0 883 3 1150 12 1159 9 9 159 12 638 10 l625 -3 3 -1159z m-538 -1411
c27 -24 50 -78 50 -117 0 -37 -14 -64 -53 -105 -27 -29 -37 -33 -84 -33 -30 0
-67 7 -84 15 -39 21 -79 86 -79 130 0 40 32 95 70 119 36 24 150 18 180 -9z"/>
</g>
</svg>
