<?xml version="1.0" standalone="no"?>
<!DOCTYPE svg PUBLIC "-//W3C//DTD SVG 20010904//EN"
 "http://www.w3.org/TR/2001/REC-SVG-20010904/DTD/svg10.dtd">
<svg version="1.0" xmlns="http://www.w3.org/2000/svg"
 width="730.000000pt" height="852.000000pt" viewBox="0 0 730.000000 852.000000"
 preserveAspectRatio="xMidYMid meet">
<metadata>
Created by potrace 1.16, written by Peter Selinger 2001-2019
</metadata>
<g transform="translate(0.000000,852.000000) scale(0.100000,-0.100000)"
fill="#000000" stroke="none">
<path d="M1608 8470 c-49 -26 -94 -83 -107 -136 -15 -58 -15 -874 0 -929 6
-22 21 -56 34 -75 24 -35 24 -35 0 -118 -123 -424 -149 -972 -59 -1264 4 -12
-76 -81 -314 -271 -175 -140 -339 -274 -364 -298 -56 -54 -109 -136 -145 -226
-28 -68 -28 -68 -31 -2393 -2 -2147 -1 -2328 14 -2375 43 -130 141 -228 270
-269 45 -15 166 -16 1290 -14 1239 3 1239 3 1304 34 121 58 208 176 230 310
14 85 13 4468 -1 4571 -19 143 -86 280 -181 368 -29 28 -192 161 -361 295
-296 236 -308 246 -304 275 3 17 13 71 23 120 15 74 19 135 18 345 0 294 -18
449 -80 686 -51 194 -50 185 -17 235 28 44 28 44 28 524 0 525 2 505 -59 567
-60 59 -46 58 -623 58 -502 -1 -530 -2 -565 -20z m1002 -320 c0 -90 0 -90
-432 -88 -433 3 -433 3 -436 91 -3 87 -3 87 433 87 435 0 435 0 435 -90z m-2
-507 c-3 -148 -3 -148 -413 -151 -225 -1 -420 0 -432 3 -22 5 -23 9 -23 144 0
76 3 141 7 144 3 4 199 7 435 7 429 0 429 0 426 -147z m-71 -401 c35 -22 109
-332 132 -552 5 -46 7 -88 5 -92 -3 -5 -228 -8 -501 -8 -496 0 -496 0 -489 88
13 175 97 544 128 563 17 11 709 11 725 1z m139 -1002 c-8 -118 -37 -241 -66
-277 -13 -16 -20 -41 -20 -67 0 -55 6 -61 435 -403 193 -154 363 -295 379
-314 60 -71 80 -132 84 -266 4 -122 4 -122 -839 -125 -785 -3 -846 -4 -876
-21 -77 -42 -85 -156 -14 -204 24 -17 85 -18 876 -23 l850 -5 3 -1789 c2
-1425 0 -1791 -10 -1798 -7 -4 -592 -8 -1299 -8 -1013 0 -1289 3 -1302 12 -16
12 -17 129 -15 1798 3 1785 3 1785 225 1790 223 5 223 5 254 36 58 59 47 153
-24 191 -26 14 -69 18 -242 23 -210 5 -210 5 -208 120 3 218 2 217 487 604
215 172 397 324 405 339 16 30 8 89 -14 107 -30 25 -75 232 -75 347 0 33 0 33
506 33 507 0 507 0 500 -100z m809 -5665 c0 -135 -6 -152 -72 -202 -36 -28
-36 -28 -1211 -31 -774 -1 -1187 1 -1212 8 -47 13 -86 43 -107 83 -22 42 -31
230 -13 252 11 13 162 15 1314 13 1301 -3 1301 -3 1301 -123z"/>
<path d="M2015 4290 c-193 -15 -410 -67 -615 -148 -138 -54 -184 -83 -225
-140 -27 -40 -30 -51 -30 -126 0 -78 2 -84 44 -156 100 -170 129 -207 183
-234 78 -39 134 -35 278 19 142 53 214 72 335 91 236 36 475 4 743 -100 112
-43 174 -47 243 -13 56 27 89 64 156 177 80 134 86 148 86 215 0 119 -55 182
-217 250 -313 131 -663 190 -981 165z m450 -265 c110 -19 273 -65 378 -105
131 -50 124 -41 82 -118 -55 -100 -49 -98 -144 -62 -228 84 -385 113 -606 113
-222 0 -402 -34 -600 -113 -41 -16 -80 -27 -87 -24 -16 6 -88 127 -88 147 0
18 141 74 290 117 91 26 231 52 345 64 77 8 341 -4 430 -19z"/>
<path d="M2055 3240 c-236 -23 -428 -111 -567 -259 -57 -60 -82 -97 -109 -157
-32 -74 -34 -86 -34 -189 0 -98 3 -117 28 -177 85 -202 275 -341 557 -410 115
-28 358 -30 475 -4 270 59 494 214 561 388 10 24 20 48 25 53 4 6 12 42 18 80
38 248 -141 500 -433 610 -149 56 -353 81 -521 65z m304 -260 c51 -10 127 -35
169 -55 314 -149 317 -427 7 -576 -128 -62 -188 -74 -360 -74 -174 0 -235 13
-362 75 -92 46 -174 120 -204 185 -26 57 -25 146 3 202 99 198 436 308 747
243z"/>
<path d="M1383 1645 c-38 -16 -73 -68 -73 -108 0 -38 23 -80 57 -103 27 -18
61 -19 773 -22 410 -2 764 0 788 3 89 13 136 97 97 178 -33 70 4 67 -847 67
-632 -1 -769 -3 -795 -15z"/>
<path d="M4873 2820 c-49 -11 -103 -58 -124 -106 -19 -41 -19 -82 -17 -1191 3
-1148 3 -1148 30 -1205 37 -79 98 -142 177 -181 66 -32 66 -32 836 -32 770 0
770 0 827 27 79 37 142 98 181 177 32 66 32 66 35 1216 2 1151 2 1151 -21
1196 -13 24 -43 58 -66 74 -43 30 -43 30 -934 32 -491 0 -907 -2 -924 -7z
m1701 -256 c9 -23 7 -477 -2 -491 -6 -9 -117 -13 -447 -15 -478 -3 -465 -2
-500 -60 -34 -58 -16 -127 42 -165 25 -16 66 -18 462 -21 327 -2 437 -6 443
-15 11 -18 10 -1019 -2 -1037 -8 -13 -104 -15 -742 -18 -403 -1 -760 1 -793 5
-60 8 -60 8 -63 513 -1 278 0 515 3 528 5 21 11 22 88 22 45 0 100 5 122 10
77 17 116 101 79 170 -29 54 -72 70 -185 70 -79 0 -98 3 -103 16 -3 9 -6 118
-6 244 0 126 3 235 6 244 6 14 85 16 799 16 714 0 793 -2 799 -16z m-4 -2103
c0 -46 -29 -88 -76 -107 -27 -11 -159 -14 -719 -14 -730 0 -726 0 -768 48 -20
22 -37 79 -30 100 4 9 172 12 799 12 794 0 794 0 794 -39z"/>
</g>
</svg>
