<svg version="1.0" xmlns="http://www.w3.org/2000/svg"
 width="851.000000pt" height="840.000000pt" viewBox="0 0 851.000000 840.000000"
 preserveAspectRatio="xMidYMid meet">
<metadata>
Created by potrace 1.16, written by Peter Selinger 2001-2019
</metadata>
<g transform="translate(0.000000,840.000000) scale(0.100000,-0.100000)"
fill="#000000" stroke="none">
<path d="M1831 8347 c-49 -24 -97 -89 -106 -141 -12 -72 -24 -957 -13 -988 22
-70 94 -103 161 -74 74 31 73 23 81 517 4 242 10 447 13 455 4 12 25 14 102
12 96 -3 96 -3 102 -223 8 -296 37 -424 140 -626 153 -299 429 -534 744 -632
113 -36 165 -46 285 -56 648 -54 1230 396 1356 1049 10 50 19 167 23 285 6
200 6 200 101 200 95 0 95 0 101 -65 4 -36 10 -270 14 -520 12 -761 -4 -928
-151 -1600 -25 -113 -75 -340 -111 -505 -43 -195 -71 -304 -81 -312 -24 -20
-2285 -19 -2301 0 -6 8 -28 94 -50 193 -208 938 -248 1138 -275 1377 -12 106
-18 133 -36 152 -52 55 -127 57 -180 4 -28 -29 -30 -35 -30 -107 0 -150 58
-466 214 -1172 47 -212 94 -428 106 -481 20 -95 20 -95 -34 -211 -339 -718
-713 -2158 -895 -3443 -54 -380 -62 -464 -47 -500 27 -65 45 -69 260 -66 469
6 772 -68 1699 -418 614 -232 858 -305 1227 -368 150 -26 583 -25 720 0 214
41 365 89 535 172 138 67 289 162 351 220 37 35 37 35 31 153 -3 64 -16 202
-27 305 -12 104 -19 194 -17 201 3 8 32 15 72 19 84 8 157 46 194 102 15 22
47 90 70 150 70 177 146 320 272 506 200 299 548 642 761 754 31 16 60 26 64
22 20 -20 26 -161 32 -747 6 -566 9 -638 24 -665 22 -41 49 -68 95 -96 36 -23
47 -24 203 -24 179 0 196 4 254 61 63 64 60 41 67 594 6 603 -2 556 152 887
153 327 180 432 179 678 -3 516 -187 946 -455 1065 -77 34 -144 42 -261 30
-225 -23 -400 -112 -567 -288 -132 -139 -220 -285 -439 -727 -266 -535 -381
-716 -585 -921 -101 -102 -132 -127 -199 -160 -202 -99 -351 -32 -476 214 -81
160 -160 190 -362 137 -497 -129 -863 -397 -1050 -770 -86 -169 -139 -376
-142 -545 -1 -114 7 -140 60 -194 66 -65 5 -61 929 -64 462 -1 843 -6 848 -11
8 -8 17 -78 42 -316 23 -218 26 -204 -47 -252 -161 -105 -377 -192 -575 -232
-488 -98 -957 -19 -1813 308 -282 108 -488 184 -630 233 -432 147 -815 227
-1090 228 -69 0 -132 4 -140 10 -12 8 -11 32 9 187 13 98 27 198 31 223 5 25
16 92 25 150 173 1123 551 2529 827 3080 53 105 53 105 322 108 148 1 273 -1
278 -6 4 -4 1 -41 -6 -82 -20 -102 -70 -451 -101 -698 -25 -198 -25 -205 -8
-234 39 -67 110 -89 172 -52 42 25 57 70 76 229 37 323 107 778 125 823 10 22
10 22 384 22 287 0 376 -3 383 -12 16 -20 72 -381 127 -811 25 -194 34 -222
81 -253 55 -36 141 -9 171 54 14 31 14 46 -6 205 -27 224 -77 571 -95 671 -30
159 -52 146 246 146 260 0 260 0 319 -122 158 -334 359 -953 525 -1623 37
-148 74 -282 81 -297 18 -35 62 -58 110 -58 49 0 114 62 114 108 0 37 -60 290
-136 572 -164 610 -340 1126 -493 1446 -59 123 -59 123 -20 301 243 1103 278
1284 300 1558 14 181 5 1371 -11 1450 -12 57 -30 86 -84 129 -38 31 -38 31
-229 34 -106 2 -206 1 -223 -3 -37 -7 -109 -66 -131 -109 -14 -25 -18 -79 -24
-296 -7 -289 -16 -342 -81 -498 -36 -88 -125 -225 -197 -304 -116 -128 -328
-254 -501 -298 -48 -12 -135 -24 -201 -27 -504 -25 -950 323 -1054 823 -11 54
-19 160 -23 336 -7 257 -7 257 -38 295 -16 21 -50 48 -74 61 -41 21 -57 22
-235 22 -177 0 -193 -2 -234 -23z m5895 -4132 c102 -42 220 -240 269 -452 44
-188 58 -452 30 -582 -22 -106 -49 -177 -131 -355 -183 -390 -177 -357 -184
-941 -5 -480 -5 -480 -77 -483 -68 -3 -73 -2 -78 20 -2 13 -6 291 -8 618 -4
656 -8 696 -67 816 -48 97 -95 117 -214 90 -410 -96 -1054 -802 -1309 -1436
-43 -105 -43 -105 -1005 -108 -962 -2 -962 -2 -962 40 0 140 83 370 191 529
61 91 199 225 300 292 148 98 407 208 546 231 40 7 40 7 81 -66 110 -198 250
-308 430 -338 238 -40 492 101 741 410 187 233 329 481 586 1025 228 482 463
701 758 704 39 1 83 -5 103 -14z"/>
<path d="M5775 7383 c-68 -35 -119 -108 -159 -226 -15 -46 -15 -51 3 -92 22
-49 61 -75 115 -75 46 0 89 38 124 110 27 55 27 55 250 58 189 2 223 0 228
-13 5 -12 -41 -361 -77 -587 -11 -68 -11 -68 -328 -68 -175 0 -320 3 -324 6
-3 3 5 31 19 61 41 93 28 165 -37 199 -38 19 -84 18 -120 -3 -32 -19 -44 -42
-130 -243 -47 -109 -54 -133 -54 -190 1 -40 7 -77 17 -95 9 -16 150 -181 315
-365 164 -184 462 -519 662 -745 199 -225 383 -429 408 -451 74 -68 162 -82
249 -39 35 17 79 57 154 142 58 65 252 282 431 483 179 201 441 496 583 655
160 179 267 307 279 334 33 74 22 118 -91 386 -303 717 -301 714 -382 755 -38
20 -61 20 -1072 20 -921 -1 -1036 -3 -1063 -17z m1309 -231 c5 -9 96 -623 96
-649 0 -10 -71 -13 -340 -13 -301 0 -340 2 -340 16 0 29 90 635 95 645 8 11
482 12 489 1z m715 -6 c18 -21 280 -640 275 -648 -7 -10 -644 -10 -644 0 0 4
-11 81 -25 172 -57 389 -67 462 -61 475 8 21 438 22 455 1z m-1562 -918 c5 -7
19 -44 30 -83 11 -38 71 -236 132 -438 137 -452 152 -507 141 -507 -4 0 -167
179 -361 397 -195 219 -400 449 -456 511 -57 63 -103 118 -103 123 0 15 606
12 617 -3z m939 -15 c-4 -16 -10 -54 -13 -85 -4 -47 -2 -62 16 -87 29 -40 82
-57 131 -42 52 15 70 40 104 144 31 92 31 92 339 95 180 1 307 -1 307 -7 0 -5
-62 -78 -137 -163 -76 -84 -281 -314 -456 -511 -175 -196 -323 -357 -328 -357
-6 0 -8 8 -5 18 3 9 30 100 61 202 43 141 55 195 52 228 -9 81 -86 128 -159
98 -21 -9 -45 -27 -54 -41 -9 -13 -45 -120 -80 -237 -97 -320 -106 -348 -115
-348 -4 0 -12 15 -18 33 -5 17 -38 129 -74 247 -36 118 -106 350 -156 514 -50
165 -91 305 -91 313 0 11 63 13 341 13 341 0 341 0 335 -27z"/>
</g>
</svg>
