
<svg version="1.0" xmlns="http://www.w3.org/2000/svg"
 width="894.000000pt" height="860.000000pt" viewBox="0 0 894.000000 860.000000"
 preserveAspectRatio="xMidYMid meet">
<metadata>
Created by potrace 1.16, written by Peter Selinger 2001-2019
</metadata>
<g transform="translate(0.000000,860.000000) scale(0.100000,-0.100000)"
fill="#000000" stroke="none">
<path d="M4233 8544 c-182 -29 -383 -112 -533 -220 -95 -68 -232 -207 -302
-304 -149 -211 -228 -466 -228 -741 0 -651 308 -1298 886 -1859 328 -318 682
-567 1112 -783 174 -87 186 -92 258 -95 100 -5 141 7 314 96 1019 526 1733
1319 1929 2142 33 139 34 154 17 193 -45 108 -207 94 -231 -20 -29 -132 -72
-283 -110 -381 -194 -496 -579 -954 -1150 -1369 -248 -180 -671 -416 -747
-416 -26 0 -80 23 -193 82 -279 146 -527 305 -757 489 -162 129 -435 399 -548
542 -257 324 -422 663 -497 1015 -24 118 -27 150 -27 345 -1 194 1 223 22 295
50 175 146 337 275 462 134 130 261 205 442 259 84 26 103 28 270 28 167 0
186 -2 270 -28 245 -74 438 -215 584 -428 39 -57 64 -82 95 -98 89 -43 146
-17 229 105 100 146 285 305 432 370 130 58 220 77 380 82 126 4 165 2 248
-16 262 -55 489 -206 634 -421 68 -100 110 -202 158 -382 19 -72 58 -108 117
-108 70 0 128 53 128 117 0 102 -98 357 -192 499 -143 217 -333 370 -584 471
-162 66 -303 93 -479 93 -380 0 -720 -165 -978 -475 -25 -30 -25 -30 -118 70
-119 125 -225 204 -364 271 -126 60 -176 78 -295 105 -116 27 -344 33 -467 13z"/>
<path d="M7130 3999 c-75 -13 -189 -68 -246 -121 -45 -42 -75 -81 -259 -343
-493 -702 -509 -724 -522 -729 -13 -5 -161 9 -168 16 -3 2 13 39 34 80 123
246 55 527 -164 683 -91 65 -167 89 -410 125 -115 17 -277 42 -360 55 -82 13
-271 42 -420 65 -366 55 -577 88 -655 103 -109 20 -322 15 -410 -10 -160 -46
-183 -60 -625 -373 -516 -367 -456 -340 -543 -252 -59 60 -87 81 -122 91 -61
18 -157 16 -205 -5 -22 -9 -224 -147 -450 -307 -225 -160 -523 -371 -661 -469
-207 -146 -257 -186 -282 -225 -54 -86 -66 -176 -34 -261 10 -27 108 -174 217
-328 109 -153 241 -340 293 -414 53 -74 116 -164 142 -200 26 -36 112 -157
192 -270 391 -554 464 -653 497 -680 53 -45 120 -63 205 -58 40 3 86 13 105
23 19 9 251 171 515 358 265 187 551 389 636 449 178 126 231 177 255 249 25
74 17 171 -18 239 -15 29 -24 57 -20 61 15 15 220 97 328 132 215 69 405 97
680 102 99 2 190 4 202 4 32 1 81 47 92 87 14 49 -7 103 -50 133 -34 23 -34
23 -289 18 -193 -4 -283 -10 -370 -26 -223 -39 -422 -100 -605 -183 -60 -28
-121 -51 -134 -52 -20 -1 -61 53 -279 359 -505 712 -615 869 -616 881 -1 11
619 459 817 591 97 64 190 95 307 100 81 4 153 -4 490 -57 398 -61 522 -80
815 -125 500 -76 547 -85 598 -112 95 -52 147 -142 147 -254 0 -104 -44 -187
-129 -240 -91 -58 -66 -58 -661 -3 -91 9 -206 16 -257 17 -89 2 -92 1 -122
-27 -36 -35 -47 -81 -31 -130 20 -63 48 -74 231 -91 90 -8 211 -19 269 -25 58
-5 155 -14 215 -20 188 -17 725 -69 822 -80 132 -14 242 -12 294 5 24 9 141
84 259 168 309 218 579 409 699 495 131 94 170 112 246 112 100 0 184 -50 227
-135 28 -55 29 -154 1 -215 -27 -62 -58 -91 -230 -212 -81 -57 -301 -213 -488
-345 -365 -258 -407 -285 -530 -334 -163 -65 -205 -69 -748 -69 -487 0 -487 0
-523 -33 -63 -57 -53 -145 23 -194 25 -17 64 -18 495 -21 405 -4 481 -2 570
13 136 23 288 73 407 135 77 41 665 448 1049 726 124 91 196 187 228 308 18
65 18 196 0 261 -41 156 -160 282 -316 338 -65 23 -65 23 -87 90 -63 197 -211
329 -399 357 -79 11 -89 11 -164 -1z m163 -253 c25 -7 59 -24 74 -36 40 -31
83 -99 83 -131 0 -22 -6 -29 -34 -39 -19 -6 -58 -28 -87 -49 -30 -21 -224
-158 -432 -305 -208 -147 -383 -266 -388 -264 -11 4 450 667 521 750 65 76
164 104 263 74z m-5051 -666 c26 -36 116 -162 199 -280 84 -118 227 -321 319
-450 92 -129 260 -368 375 -530 115 -162 233 -328 262 -369 80 -112 81 -111
-88 -231 -78 -55 -144 -100 -148 -100 -10 0 28 -52 -791 1105 -35 50 -162 229
-283 398 -124 176 -217 315 -215 325 2 9 62 59 133 110 162 115 169 116 237
22z m-436 -487 c185 -261 500 -706 657 -928 67 -93 153 -215 192 -270 326
-458 300 -417 273 -442 -13 -11 -117 -87 -233 -168 -115 -82 -278 -197 -361
-256 -83 -59 -160 -110 -171 -113 -28 -9 -50 13 -120 114 -33 47 -149 211
-258 365 -469 661 -880 1242 -903 1277 -16 25 -22 45 -18 60 4 16 92 84 268
208 432 306 510 360 519 360 4 0 74 -93 155 -207z"/>
</g>
</svg>
