<?xml version="1.0" standalone="no"?>
<!DOCTYPE svg PUBLIC "-//W3C//DTD SVG 20010904//EN"
 "http://www.w3.org/TR/2001/REC-SVG-20010904/DTD/svg10.dtd">
<svg version="1.0" xmlns="http://www.w3.org/2000/svg"
 width="1415.000000pt" height="1010.000000pt" viewBox="0 0 1415.000000 1010.000000"
 preserveAspectRatio="xMidYMid meet">
<metadata>
Created by potrace 1.16, written by Peter Selinger 2001-2019
</metadata>
<g transform="translate(0.000000,1010.000000) scale(0.100000,-0.100000)"
fill="#000000" stroke="none">
<path d="M2380 9874 c-65 -35 -2062 -2034 -2086 -2089 -17 -37 -19 -83 -22
-535 -3 -466 5 -695 28 -855 8 -54 17 -96 48 -215 23 -89 68 -202 131 -330 44
-89 57 -111 93 -164 28 -39 28 -39 28 -2635 0 -2040 3 -2607 12 -2650 10 -42
23 -65 59 -102 82 -85 11 -79 999 -79 878 0 878 0 929 27 98 50 152 164 128
269 -16 66 -49 113 -110 155 -50 34 -50 34 -781 39 l-731 5 -3 2208 c-1 1639
1 2207 9 2207 7 0 32 -15 58 -32 25 -18 87 -53 136 -76 50 -24 99 -48 109 -54
46 -25 202 -77 291 -99 171 -40 210 -44 460 -44 251 1 254 1 460 44 22 5 56
15 75 22 19 7 67 23 105 37 70 24 279 124 346 165 114 70 289 213 373 306 23
24 46 49 52 55 31 32 106 131 158 209 33 48 62 87 67 87 4 0 31 -35 59 -77
199 -295 449 -517 750 -664 115 -57 244 -109 269 -109 7 0 27 -6 44 -14 18 -8
46 -16 62 -19 17 -3 68 -13 115 -23 70 -15 129 -19 340 -18 257 0 258 0 465
43 22 5 56 15 75 22 19 7 67 23 105 36 39 14 120 49 182 79 304 147 566 379
757 672 26 39 52 72 57 72 4 0 33 -38 64 -84 187 -281 447 -510 745 -657 115
-57 244 -109 269 -109 7 0 27 -6 44 -14 18 -8 46 -17 62 -20 17 -3 68 -13 115
-23 68 -14 135 -17 340 -17 257 0 258 0 465 43 22 5 56 15 75 22 19 7 67 23
105 37 39 13 104 40 145 59 41 19 84 39 95 45 28 12 55 29 92 56 17 12 34 22
38 22 7 0 146 101 195 143 133 113 268 264 364 410 32 48 62 87 67 87 5 0 31
-33 57 -72 266 -406 679 -702 1127 -809 163 -38 197 -42 425 -46 235 -4 284 0
450 38 188 43 430 143 583 242 40 25 50 28 58 16 13 -21 12 -4365 -1 -4390
-10 -18 -25 -19 -398 -19 -213 0 -393 4 -399 8 -10 6 -13 380 -15 1717 -3
1710 -3 1710 -33 1759 -41 66 -110 113 -178 121 -28 3 -950 5 -2047 3 -1840
-3 -1998 -4 -2030 -20 -37 -17 -84 -63 -116 -113 -19 -29 -19 -70 -22 -1747
-2 -1718 -2 -1718 -25 -1723 -12 -3 -344 -6 -737 -8 -715 -2 -715 -2 -757 -29
-75 -49 -123 -132 -123 -214 0 -96 60 -187 147 -225 44 -19 125 -19 3544 -19
3500 0 3500 0 3552 26 52 25 105 84 123 134 5 14 11 1191 14 2650 5 2625 5
2625 31 2660 15 19 41 62 59 95 18 33 36 65 40 70 4 6 21 46 39 90 18 44 36
89 40 100 35 83 80 266 105 425 13 88 16 200 16 686 0 581 0 581 -27 633 -37
68 -2003 2038 -2078 2082 -50 29 -50 29 -2567 29 -2517 0 -2517 0 -2571 -26
-66 -31 -115 -93 -133 -170 -22 -98 19 -191 115 -259 43 -30 43 -30 2494 -35
1349 -3 2454 -6 2456 -8 31 -20 1450 -1455 1446 -1462 -8 -12 -11881 -14
-11889 -2 -3 5 323 336 725 738 l729 729 1468 5 c1428 5 1468 6 1497 24 89 57
128 125 129 221 0 44 -7 73 -24 108 -28 56 -50 78 -113 112 -48 25 -48 25
-1585 24 -1537 -1 -1537 -1 -1582 -25z m11004 -2450 c14 -13 16 -58 16 -336 0
-449 -12 -583 -70 -807 -5 -18 -13 -38 -19 -44 -6 -6 -11 -19 -11 -29 0 -22
-70 -171 -105 -222 -14 -20 -25 -39 -25 -42 0 -14 -117 -159 -179 -222 -63
-64 -249 -212 -266 -212 -3 0 -23 -11 -45 -25 -22 -14 -46 -25 -55 -25 -8 0
-15 -4 -15 -8 0 -15 -160 -73 -305 -111 -211 -55 -523 -39 -745 38 -541 190
-909 667 -945 1226 -8 135 -21 190 -52 233 -35 46 -75 82 -93 82 -9 0 -25 7
-36 15 -32 24 -114 19 -170 -11 -67 -35 -98 -67 -128 -131 -22 -46 -26 -68
-27 -151 0 -85 -16 -193 -48 -322 -12 -48 -52 -153 -86 -225 -61 -130 -157
-265 -273 -382 -54 -55 -212 -179 -267 -209 -166 -91 -227 -115 -410 -163
-164 -43 -447 -43 -610 0 -129 33 -259 83 -360 136 -156 83 -349 253 -457 402
-57 78 -156 257 -171 306 -3 11 -14 43 -24 70 -36 92 -66 262 -79 435 -3 52
-13 98 -25 121 -24 48 -87 107 -121 115 -15 3 -30 10 -33 15 -13 20 -111 10
-161 -17 -100 -52 -139 -114 -148 -239 -10 -129 -25 -255 -36 -290 -5 -16 -17
-59 -26 -95 -10 -36 -21 -69 -25 -75 -3 -5 -10 -21 -14 -35 -23 -77 -112 -235
-190 -337 -91 -121 -274 -283 -397 -353 -99 -56 -240 -120 -263 -120 -9 0 -25
-5 -36 -10 -10 -6 -40 -15 -66 -21 -248 -54 -447 -54 -683 0 -63 14 -227 75
-270 100 -8 4 -31 16 -50 26 -151 77 -341 243 -457 399 -167 224 -273 530
-273 788 0 74 -4 93 -28 141 -30 59 -86 117 -113 117 -8 0 -24 7 -35 15 -11 8
-41 15 -70 15 -65 0 -135 -35 -189 -95 -48 -52 -61 -104 -69 -260 -13 -256
-111 -518 -277 -736 -144 -190 -369 -366 -564 -440 -27 -11 -59 -23 -70 -28
-20 -9 -92 -30 -170 -50 -264 -69 -655 -25 -899 100 -22 12 -54 28 -71 37 -60
30 -192 121 -250 174 -53 46 -117 115 -187 198 -62 75 -198 321 -198 359 0 9
-4 21 -10 27 -5 5 -23 63 -40 129 -32 120 -32 120 -37 583 -4 360 -3 465 7
477 11 13 724 15 6301 15 5703 0 6289 -1 6303 -16z m-3606 -3606 c17 -17 17
-3079 0 -3096 -17 -17 -1439 -17 -1456 0 -17 17 -17 3079 0 3096 17 17 1439
17 1456 0z m1970 0 c17 -17 17 -3079 0 -3096 -9 -9 -184 -12 -724 -12 -392 0
-719 3 -728 6 -15 6 -16 152 -16 1554 0 1229 3 1549 13 1553 6 3 334 6 727 6
545 1 719 -2 728 -11z"/>
<path d="M2050 3313 c-92 -61 -130 -125 -130 -223 0 -99 35 -161 120 -215 40
-25 40 -25 300 -25 261 0 261 0 276 -35 8 -19 19 -61 24 -93 5 -31 16 -88 24
-127 7 -38 24 -122 36 -185 12 -63 26 -130 32 -148 5 -19 13 -57 18 -85 9 -60
44 -242 65 -337 7 -36 16 -76 18 -90 6 -32 42 -213 63 -310 8 -41 21 -85 27
-98 20 -42 71 -91 121 -117 49 -25 49 -25 1412 -25 1277 0 1366 1 1401 17 39
19 43 21 80 52 24 19 83 130 83 154 0 8 9 50 21 93 11 44 24 97 29 119 5 22
41 166 81 320 39 154 73 291 76 305 3 14 30 121 59 239 32 125 54 235 54 267
0 95 -54 175 -146 219 -53 25 -53 25 -1247 25 -1195 0 -1195 0 -1247 -27 -108
-56 -163 -163 -138 -271 13 -60 53 -122 95 -149 16 -10 30 -20 33 -24 21 -25
162 -29 1101 -29 715 0 978 -3 981 -11 2 -6 -5 -44 -15 -83 -17 -65 -35 -134
-56 -226 -5 -19 -16 -64 -26 -100 -9 -36 -21 -85 -26 -110 -5 -25 -13 -56 -18
-70 -5 -14 -17 -61 -27 -105 -10 -44 -22 -86 -27 -92 -7 -10 -241 -13 -1111
-13 -605 0 -1106 4 -1113 8 -6 4 -17 37 -23 72 -7 36 -16 89 -21 119 -5 30
-12 58 -15 63 -3 5 -9 33 -14 61 -8 53 -37 203 -64 332 -22 102 -44 211 -56
280 -7 33 -16 80 -22 105 -5 25 -14 68 -18 95 -48 283 -72 364 -124 417 -78
81 -56 78 -514 77 -359 0 -410 -2 -432 -16z"/>
<path d="M3525 1024 c-74 -27 -104 -44 -159 -95 -97 -89 -136 -176 -136 -306
0 -80 4 -99 39 -172 46 -99 144 -181 262 -219 45 -15 179 -15 216 -1 107 43
190 105 233 174 87 141 91 280 12 425 -87 158 -308 250 -467 194z"/>
<path d="M5165 1024 c-117 -42 -209 -121 -258 -223 -30 -62 -32 -73 -32 -176
0 -102 2 -114 30 -170 52 -104 149 -185 266 -223 45 -15 179 -15 216 -1 136
54 221 130 270 242 42 94 35 242 -15 338 -89 173 -311 271 -477 213z"/>
</g>
</svg>
