
<svg version="1.0" xmlns="http://www.w3.org/2000/svg"
 width="1102.000000pt" height="853.000000pt" viewBox="0 0 1102.000000 853.000000"
 preserveAspectRatio="xMidYMid meet">
<metadata>
Created by potrace 1.16, written by Peter Selinger 2001-2019
</metadata>
<g transform="translate(0.000000,853.000000) scale(0.100000,-0.100000)"
fill="#000000" stroke="none">
<path d="M1905 8485 c-16 -9 -135 -120 -264 -248 -251 -249 -279 -287 -266
-356 9 -49 451 -861 488 -897 12 -11 123 -82 247 -157 225 -137 225 -137 1380
-1292 l1155 -1155 -280 -280 c-154 -154 -284 -280 -289 -280 -5 0 -37 27 -71
59 -51 49 -69 60 -107 66 -27 4 -61 2 -80 -4 -24 -8 -328 -306 -1109 -1089
-1162 -1163 -1125 -1123 -1203 -1309 -209 -499 6 -1083 488 -1323 55 -27 142
-62 191 -77 82 -24 106 -27 265 -27 193 -1 253 9 406 69 189 74 163 50 1331
1218 1009 1009 1072 1074 1078 1113 10 67 -8 113 -70 174 -30 30 -55 59 -55
65 0 6 56 66 125 135 125 125 125 125 713 -462 323 -322 601 -593 619 -602 94
-47 216 18 230 124 11 82 -4 103 -327 425 -165 165 -300 305 -300 311 0 12
975 994 987 994 16 0 2101 -2096 2133 -2143 203 -305 140 -716 -147 -946 -128
-102 -274 -152 -442 -152 -103 0 -165 11 -254 45 -114 43 -174 90 -417 330
-129 128 -248 243 -264 254 -22 17 -43 22 -88 22 -56 0 -62 -2 -105 -44 -44
-41 -47 -47 -51 -105 -4 -54 -1 -66 22 -100 38 -54 470 -479 538 -529 170
-125 355 -190 563 -199 241 -11 435 41 630 168 188 122 340 321 410 536 83
252 69 513 -41 761 -72 163 -58 148 -1470 1562 -734 735 -1334 1340 -1334
1345 0 19 656 662 735 721 204 152 181 142 231 93 24 -24 44 -52 44 -64 0 -11
-11 -62 -25 -113 -29 -108 -30 -127 -11 -173 20 -47 458 -481 514 -508 126
-63 255 -65 381 -6 73 35 94 54 513 473 460 460 472 475 504 597 27 101 9 219
-49 317 -14 24 -128 145 -254 269 -266 264 -247 254 -409 215 -54 -14 -107
-28 -117 -32 -14 -5 -30 6 -68 47 -27 29 -49 58 -49 64 0 6 18 46 40 89 43 83
49 125 26 179 -18 41 -1437 1456 -1526 1521 -435 321 -1002 411 -1507 240
-199 -67 -371 -162 -522 -289 -47 -40 -195 -182 -328 -316 -343 -347 -341
-314 -35 -621 172 -171 214 -208 250 -219 58 -17 103 -2 181 61 180 144 376
168 574 69 50 -26 106 -75 294 -261 267 -266 285 -293 285 -422 0 -139 15
-121 -541 -678 -272 -274 -500 -498 -506 -498 -5 0 -532 523 -1170 1163 -1160
1162 -1160 1162 -1293 1383 -73 122 -140 228 -150 236 -9 8 -204 117 -432 243
-356 196 -422 229 -465 232 -33 3 -60 -1 -80 -12z m4729 -340 c177 -40 318
-101 477 -206 81 -54 186 -154 753 -719 658 -656 658 -656 618 -736 -80 -161
-77 -172 121 -372 84 -85 165 -161 181 -169 42 -22 107 -19 215 11 61 16 99
22 110 16 9 -4 84 -77 168 -162 150 -152 172 -183 159 -230 -3 -13 -194 -212
-425 -442 -419 -419 -419 -419 -462 -413 -39 5 -56 19 -196 159 -85 84 -159
161 -164 170 -7 12 -2 45 17 110 30 106 33 172 11 214 -8 16 -84 97 -169 181
-221 218 -228 219 -455 50 -76 -57 -150 -111 -165 -121 -27 -18 -27 -18 -315
271 -158 159 -296 298 -306 309 -17 20 -16 23 7 77 46 102 58 172 54 297 -3
92 -9 130 -30 188 -47 132 -79 172 -344 436 -205 206 -265 260 -331 299 -257
154 -546 165 -817 31 -39 -19 -75 -34 -82 -34 -16 0 -124 108 -124 124 0 7 87
98 193 203 209 205 319 288 479 362 94 44 221 84 313 100 33 6 71 13 85 15 55
10 357 -4 424 -19z m-4311 -186 c172 -94 318 -176 325 -182 12 -10 179 -277
189 -303 6 -16 -408 -434 -429 -434 -16 0 -292 166 -308 185 -7 8 -88 153
-182 322 -113 206 -167 315 -164 328 5 19 237 255 251 255 3 0 146 -77 318
-171z m2129 -2152 c766 -766 1399 -1400 1407 -1410 13 -16 -3 -34 -170 -202
-101 -102 -189 -185 -196 -185 -17 0 -2813 2795 -2813 2812 0 13 359 378 372
378 5 0 635 -627 1400 -1393z m2413 -267 l290 -290 -270 -271 c-213 -213 -274
-269 -290 -265 -146 37 -167 40 -238 28 -74 -13 -183 -60 -213 -93 -9 -11 -24
-19 -33 -19 -17 0 -371 348 -371 365 0 10 820 835 830 835 3 0 136 -131 295
-290z m-155 -1375 l245 -245 -495 -495 c-272 -272 -500 -495 -505 -495 -6 0
-120 109 -253 243 -242 243 -242 243 -242 287 0 44 0 44 438 483 240 242 451
448 467 459 63 41 76 32 345 -237z m-1643 -207 c101 -101 183 -186 183 -190 0
-4 -15 -27 -33 -51 -82 -108 -109 -258 -68 -387 20 -64 20 -64 -111 -197 -73
-73 -137 -133 -142 -133 -14 0 -576 562 -576 575 0 10 550 565 560 565 3 0 87
-82 187 -182z m-695 -905 c269 -269 488 -495 488 -503 0 -23 -1934 -1949
-2000 -1992 -114 -73 -189 -101 -320 -117 -151 -19 -333 23 -462 108 -255 166
-378 478 -303 766 20 76 76 195 117 249 52 68 1962 1976 1978 1976 8 0 234
-219 502 -487z"/>
<path d="M7102 1590 c-103 -63 -96 -233 11 -284 49 -23 112 -20 158 6 106 59
103 231 -5 282 -47 22 -123 21 -164 -4z"/>
</g>
</svg>
